<?xml version="1.0" standalone="no"?>
<!DOCTYPE svg PUBLIC "-//W3C//DTD SVG 20010904//EN"
 "http://www.w3.org/TR/2001/REC-SVG-20010904/DTD/svg10.dtd">
<svg version="1.0" xmlns="http://www.w3.org/2000/svg"
 width="163.000000pt" height="60.000000pt" viewBox="0 0 163.000000 60.000000"
 preserveAspectRatio="xMidYMid meet">
<metadata>
Created by potrace 1.15, written by Peter Selinger 2001-2017
</metadata>
<g transform="translate(0.000000,60.000000) scale(0.100000,-0.100000)"
fill="#000000" stroke="none">
<path d="M1203 576 c-24 -20 -25 -26 -14 -40 8 -9 9 -16 3 -16 -6 0 -12 6 -15
13 -5 14 -47 -19 -47 -38 0 -19 37 -48 45 -36 3 6 11 11 17 11 6 0 5 -6 -2
-16 -11 -13 -10 -19 9 -37 l22 -22 19 25 c15 19 16 28 7 40 -10 13 -10 13 4 3
13 -11 19 -9 37 10 20 22 20 22 1 46 -17 20 -21 22 -36 10 -15 -13 -15 -12 -5
6 8 16 7 24 -6 40 -17 20 -17 20 6 1 12 -11 23 -17 25 -15 1 2 9 12 16 22 12
15 10 17 -22 17 -23 0 -46 -8 -64 -24z"/>
<path d="M1366 513 c-3 -21 -6 -107 -6 -190 l0 -153 50 0 50 0 0 89 c0 104
-12 144 -47 160 -24 11 -25 15 -20 71 4 45 2 60 -8 60 -7 0 -15 -17 -19 -37z"/>
<path d="M407 533 c-4 -3 -7 -30 -7 -60 0 -29 -4 -53 -9 -53 -5 0 -23 -12 -40
-26 -31 -26 -31 -26 -31 -125 l0 -99 55 0 55 0 0 185 c0 169 -4 198 -23 178z"/>
<path d="M160 410 c0 -5 11 -12 25 -16 32 -8 32 -23 1 -49 -26 -21 -32 -51
-28 -142 l2 -43 44 0 44 0 6 73 c7 85 -5 145 -35 170 -23 18 -59 23 -59 7z"/>
<path d="M760 289 c0 -79 4 -129 10 -129 6 0 10 45 10 115 0 63 4 115 8 115
24 0 32 -30 32 -127 0 -85 3 -103 15 -103 12 0 15 19 15 115 0 63 4 115 9 115
25 0 36 -37 38 -129 0 -59 5 -97 12 -99 8 -3 11 31 11 106 0 133 -8 145 -101
148 l-59 3 0 -130z"/>
<path d="M980 410 c0 -5 11 -12 25 -16 32 -8 32 -23 1 -49 -26 -21 -32 -51
-28 -142 l2 -43 44 0 44 0 6 73 c7 85 -5 145 -35 170 -23 18 -59 23 -59 7z"/>
<path d="M1522 308 l3 -113 32 -20 c30 -19 32 -24 33 -77 0 -45 3 -58 15 -58
13 0 15 27 15 185 0 158 -2 185 -15 185 -12 0 -15 -19 -15 -110 0 -64 -4 -110
-10 -110 -22 0 -32 46 -29 134 4 80 2 91 -14 94 -16 3 -17 -5 -15 -110z"/>
<path d="M1195 360 c-17 -19 -17 -24 -5 -43 12 -20 12 -21 -4 -8 -15 13 -20
12 -39 -7 l-21 -22 21 -22 c19 -19 24 -20 39 -7 16 13 16 12 3 -8 -12 -20 -11
-25 8 -45 l22 -21 20 24 c12 15 16 28 10 33 -15 16 -10 29 7 16 13 -11 19 -10
37 8 l21 22 -21 22 c-18 18 -24 19 -37 8 -18 -14 -22 0 -6 16 7 7 3 17 -13 32
l-24 22 -18 -20z"/>
<path d="M1194 139 c-16 -17 -16 -23 -5 -42 9 -14 0 -9 -23 12 l-36 35 0 -28
c0 -24 2 -27 15 -16 20 17 19 1 -2 -22 -16 -18 -16 -20 5 -40 18 -19 23 -20
39 -8 15 12 16 12 6 0 -21 -23 -15 -28 28 -28 31 -1 39 2 30 11 -17 17 -13 31
4 17 13 -11 19 -9 36 9 l21 22 -23 25 c-22 23 -24 24 -36 8 -7 -10 -13 -13
-13 -7 0 7 5 15 10 18 6 4 3 16 -7 30 -22 30 -25 30 -49 4z"/>
</g>
</svg>
